<svg id="Ebene_1" data-name="Ebene 1" xmlns="http://www.w3.org/2000/svg" viewBox="0 0 121.95 39.5"><defs><style>.cls-1,.cls-2{fill:#6d6d74;}.cls-2{fill-rule:evenodd;}</style></defs><title>logo_mediawave_gray</title><path class="cls-1" d="M257.69,422.22v5.06a2.62,2.62,0,0,1-.54,1.8,1.86,1.86,0,0,1-1.44.6,1.8,1.8,0,0,1-1.4-.6,2.67,2.67,0,0,1-.53-1.8v-6.06a20.56,20.56,0,0,0-.1-2.23,2.46,2.46,0,0,0-.53-1.31,1.74,1.74,0,0,0-1.37-.5,2.41,2.41,0,0,0-2.46,1.28,8.92,8.92,0,0,0-.6,3.68v5.14a2.61,2.61,0,0,1-.53,1.79,1.78,1.78,0,0,1-1.41.61,1.82,1.82,0,0,1-1.42-.61,2.61,2.61,0,0,1-.55-1.79V416.4a2.42,2.42,0,0,1,.5-1.64,1.65,1.65,0,0,1,1.3-.55,1.76,1.76,0,0,1,1.3.52,1.94,1.94,0,0,1,.52,1.44v.36a6.62,6.62,0,0,1,2.12-1.74,5.6,5.6,0,0,1,2.51-.55,5,5,0,0,1,2.47.57,4.46,4.46,0,0,1,1.7,1.72,6.67,6.67,0,0,1,2.06-1.73,5.25,5.25,0,0,1,2.44-.56,5.54,5.54,0,0,1,2.69.61,3.92,3.92,0,0,1,1.69,1.75,8.15,8.15,0,0,1,.49,3.25v7.43a2.57,2.57,0,0,1-.55,1.8,1.84,1.84,0,0,1-1.43.6,1.78,1.78,0,0,1-1.41-.61,2.56,2.56,0,0,1-.55-1.79v-6.4a14.43,14.43,0,0,0-.11-2,2.29,2.29,0,0,0-.56-1.24,1.8,1.8,0,0,0-1.4-.5,2.53,2.53,0,0,0-1.43.44,3.06,3.06,0,0,0-1.05,1.2,9.5,9.5,0,0,0-.42,3.4Z" transform="translate(-236 -401.89)"/><path class="cls-2" d="M240.23,421.93a15.48,15.48,0,1,0,15.48-15.47,15.48,15.48,0,0,0-15.48,15.47Zm-4.23-.29a19.75,19.75,0,1,1,19.75,19.75A19.75,19.75,0,0,1,236,421.64Z" transform="translate(-236 -401.89)"/><path class="cls-1" d="M281.74,427.13v-9.6h1.78v.87l.05,0a2.76,2.76,0,0,1,2.07-1,2.32,2.32,0,0,1,1.7.65,2.05,2.05,0,0,1,.44.63l.1-.12a3.06,3.06,0,0,1,2.13-1.16,2.2,2.2,0,0,1,2.43,2.43v7.37H290.7v-6.91a1.86,1.86,0,0,0-.32-1.16,1.12,1.12,0,0,0-.92-.39,1.27,1.27,0,0,0-1.11.51,2.87,2.87,0,0,0-.35,1.58v6.37h-1.78v-6.92a1.83,1.83,0,0,0-.32-1.15,1.12,1.12,0,0,0-.92-.39,1.25,1.25,0,0,0-1.1.51,2.77,2.77,0,0,0-.36,1.58v6.37h-1.78Z" transform="translate(-236 -401.89)"/><path class="cls-2" d="M297.87,427.33a3,3,0,0,1-2.44-.84,4.53,4.53,0,0,1-.7-2.86v-2.8a3.87,3.87,0,0,1,.77-2.64,3.74,3.74,0,0,1,4.75,0,3.88,3.88,0,0,1,.76,2.66V423h-4.5v.71a4.21,4.21,0,0,0,.27,1.87,1.14,1.14,0,0,0,1.09.46,1.35,1.35,0,0,0,1-.36,1.48,1.48,0,0,0,.3-1.1v-.28H301v.28a2.51,2.51,0,0,1-.7,2.11,3.55,3.55,0,0,1-2.42.69Zm1.36-5.7v-.77a3.6,3.6,0,0,0-.29-1.72,1.18,1.18,0,0,0-1.07-.47,1.13,1.13,0,0,0-1,.51,3.39,3.39,0,0,0-.32,1.68v.77Z" transform="translate(-236 -401.89)"/><path class="cls-2" d="M305.39,427.33a2.33,2.33,0,0,1-1.95-.78,4.09,4.09,0,0,1-.61-2.48V421a4.9,4.9,0,0,1,.63-2.78,2.19,2.19,0,0,1,1.93-.9,2.27,2.27,0,0,1,1.88.85v-4.83h1.78v13.78h-1.78v-.85a2.29,2.29,0,0,1-1.88,1.05Zm.56-8.6a1.13,1.13,0,0,0-1,.45,2.72,2.72,0,0,0-.31,1.51v3.46a2.82,2.82,0,0,0,.25,1.46,1.11,1.11,0,0,0,1,.36,1.15,1.15,0,0,0,1.11-.56,4.84,4.84,0,0,0,.3-2.05v-2.82a2.11,2.11,0,0,0-.28-1.36,1.21,1.21,0,0,0-1-.45Z" transform="translate(-236 -401.89)"/><path class="cls-2" d="M311.6,427.13v-9.6h1.78v9.6H311.6Zm0-13.74h1.86v1.76h-1.86v-1.76Z" transform="translate(-236 -401.89)"/><path class="cls-2" d="M317.48,427.33a2,2,0,0,1-1.66-.7,3.1,3.1,0,0,1-.57-2v0a3.23,3.23,0,0,1,.93-2.65,5.39,5.39,0,0,1,3.29-.75h.23v-1.14a1.55,1.55,0,0,0-.32-1,1.07,1.07,0,0,0-.88-.37,1.14,1.14,0,0,0-.94.41,1.81,1.81,0,0,0-.33,1.17h-1.76a2.8,2.8,0,0,1,.75-2.15,3.12,3.12,0,0,1,2.25-.77,3.16,3.16,0,0,1,2.28.7,3,3,0,0,1,.72,2.22v6.88H319.7v-1a1.41,1.41,0,0,1-.17.32,2.27,2.27,0,0,1-2,.88Zm2.22-3.89v-.89h-.4a2.39,2.39,0,0,0-1.67.52,1.91,1.91,0,0,0-.58,1.49v0a1.9,1.9,0,0,0,.26,1.12,1,1,0,0,0,.84.33,1.3,1.3,0,0,0,1.19-.65,3.55,3.55,0,0,0,.36-1.9Z" transform="translate(-236 -401.89)"/><polygon class="cls-2" points="88.92 25.24 86.96 15.64 87.86 15.64 88.77 15.64 90.26 23.96 90.27 23.96 91.69 15.64 92.91 15.64 94.14 15.64 95.72 24.01 95.71 24.01 97.19 15.64 98 15.64 98.81 15.64 96.88 25.24 95.64 25.24 94.4 25.24 92.84 17.19 92.84 17.19 91.42 25.24 90.17 25.24 88.92 25.24 88.92 25.24"/><path class="cls-2" d="M338.15,427.33a2,2,0,0,1-1.67-.7,3.16,3.16,0,0,1-.56-2v0a3.23,3.23,0,0,1,.93-2.65,5.34,5.34,0,0,1,3.28-.75h.23v-1.14a1.6,1.6,0,0,0-.31-1,1.1,1.1,0,0,0-.89-.37,1.14,1.14,0,0,0-.94.41,1.87,1.87,0,0,0-.32,1.17h-1.76a2.73,2.73,0,0,1,.75-2.15,3.07,3.07,0,0,1,2.24-.77,3.16,3.16,0,0,1,2.28.7,3,3,0,0,1,.73,2.22v6.88h-1.78v-1a1.41,1.41,0,0,1-.17.32,2.25,2.25,0,0,1-2,.88Zm2.21-3.89v-.89H340a2.39,2.39,0,0,0-1.67.52,1.9,1.9,0,0,0-.57,1.49v0a1.91,1.91,0,0,0,.25,1.12,1,1,0,0,0,.85.33,1.29,1.29,0,0,0,1.18-.65,3.46,3.46,0,0,0,.36-1.9Z" transform="translate(-236 -401.89)"/><polygon class="cls-2" points="107.73 15.64 108.64 15.64 109.56 15.64 111.07 23.42 111.07 23.42 112.56 15.64 113.45 15.64 114.35 15.64 112.18 25.24 111.05 25.24 109.9 25.24 107.73 15.64 107.73 15.64"/><path class="cls-2" d="M354.8,427.33a3,3,0,0,1-2.43-.84,4.47,4.47,0,0,1-.7-2.86v-2.8a3.87,3.87,0,0,1,.76-2.64,3,3,0,0,1,2.37-.86,3.07,3.07,0,0,1,2.39.84,3.93,3.93,0,0,1,.76,2.66V423h-4.5v.71a4.41,4.41,0,0,0,.26,1.87,1.16,1.16,0,0,0,1.1.46,1.37,1.37,0,0,0,1-.36,1.53,1.53,0,0,0,.3-1.1v-.28h1.78v.28a2.54,2.54,0,0,1-.7,2.11,3.58,3.58,0,0,1-2.43.69Zm1.37-5.7v-.77a3.46,3.46,0,0,0-.3-1.72,1.17,1.17,0,0,0-1.07-.47,1.14,1.14,0,0,0-1,.51,3.4,3.4,0,0,0-.31,1.68v.77Z" transform="translate(-236 -401.89)"/></svg>